<svg width="40" height="30" viewBox="-7.21 0.78 40 30" fill="none" xmlns="http://www.w3.org/2000/svg" version="1.1" xmlns:xlink="http://www.w3.org/1999/xlink" xmlns:svgjs="http://svgjs.dev/svgjs">
<path d="M65.0444 5.98023L58.1509 24.8434H55.0871L52.7072 18.915L50.6829 12.9596L48.6859 18.9689L46.3607 24.8434H43.2969L36.2666 5.98023H40.3152L44.8288 19.5887L49.4792 5.98023H51.8318L56.619 19.5887L60.9959 5.98023H65.0444Z" fill="#403D3C"/>
<path d="M78.327 19.3731H67.7952C68.014 21.0169 69.4638 22.2025 71.8164 22.2025C73.0474 22.2025 74.6614 21.7444 75.4273 20.963L77.561 23.0379C76.1385 24.4931 73.8133 25.1937 71.7617 25.1937C67.1113 25.1937 64.3484 22.3642 64.3484 18.1065C64.3484 14.0644 67.1386 11.1541 71.5155 11.1541C76.0291 11.1541 78.8467 13.9028 78.327 19.3731ZM67.8499 16.6514H75.1264C74.9076 14.9268 73.5398 14.0644 71.6249 14.0644C69.8195 14.0644 68.3423 14.9268 67.8499 16.6514Z" fill="#403D3C"/>
<path d="M95.2341 9.07918L92.3618 10.5343C91.7052 9.45644 89.8998 8.43244 87.8208 8.43244C85.14 8.43244 83.8543 9.53729 83.8543 10.9385C83.8543 12.5823 85.8238 13.0404 88.1217 13.3099C92.1156 13.795 95.8359 14.819 95.8359 19.3192C95.8359 23.523 92.0609 25.3284 87.7934 25.3284C83.8816 25.3284 80.8725 24.1428 79.45 20.6935L82.4591 19.1575C83.3071 21.2324 85.5229 22.1487 87.8481 22.1487C90.1186 22.1487 92.2523 21.3672 92.2523 19.3192C92.2523 17.5407 90.3648 16.8131 87.8208 16.5436C83.909 16.0855 80.2981 15.0615 80.2981 10.8308C80.2981 6.95034 84.1825 5.36044 87.7114 5.3335C90.6931 5.3335 93.7842 6.16886 95.2341 9.07918Z" fill="#403D3C"/>
<path d="M97.9745 5.98023H101.312V13.3638C102.516 11.8278 103.993 11.3697 105.525 11.3697C109.354 11.3697 111.05 13.9297 111.05 17.8371V24.8434H107.713V17.864C107.713 15.4388 106.427 14.4148 104.649 14.4148C102.68 14.4148 101.312 16.0585 101.312 18.0527V24.8434H97.9745V5.98023Z" fill="#403D3C"/>
<path d="M120.065 11.2889C124.36 11.2889 127.123 14.4148 127.123 18.2143C127.123 22.0409 124.469 25.1398 120.092 25.1398C115.716 25.1398 113.089 22.0409 113.089 18.2143C113.089 14.4148 115.77 11.2889 120.065 11.2889ZM120.092 14.28C117.685 14.28 116.427 16.2202 116.427 18.2143C116.427 20.2354 117.658 22.1217 120.092 22.1217C122.527 22.1217 123.758 20.2354 123.758 18.2143C123.758 16.2202 122.336 14.28 120.092 14.28Z" fill="#403D3C"/>
<path d="M136.833 21.987C139.103 21.987 140.663 20.2893 140.663 18.2143C140.663 16.1394 139.24 14.4417 136.833 14.4417C134.426 14.4417 133.003 16.1394 133.003 18.2143C133.003 20.2893 134.562 21.987 136.833 21.987ZM132.702 30.9335H129.365V11.5583H132.483L132.702 13.3908C133.742 11.9087 135.547 11.2619 137.079 11.2619C141.237 11.2619 144 14.307 144 18.2143C144 22.0948 141.511 25.1668 137.188 25.1668C135.766 25.1668 133.66 24.7356 132.702 23.2804V30.9335Z" fill="#403D3C"/>
<path d="M7.07212 9.33307C4.83038 9.87141 2.81363 12.4527 3.89309 14.7828C4.22163 15.4923 4.83176 16.0403 5.50952 16.431C7.57734 17.6195 9.85498 17.8665 12.1671 18.0874C14.0196 18.2641 15.8762 18.5264 17.7259 18.7279C19 18.8659 20.6165 19.1544 21.6283 20.0268C22.6111 20.8758 22.8748 22.1567 22.4041 23.3384C21.8809 24.6511 20.6261 25.5773 19.4086 26.2012C18.2601 26.7893 17.0137 27.1523 15.7741 27.5126C14.1052 27.9985 12.4418 28.5465 10.7412 28.8695C9.00052 29.2008 7.20188 29.3223 5.45155 28.9896C4.51979 28.8129 3.58389 28.4941 2.87299 27.8674C2.16071 27.2393 1.71071 26.2551 1.91362 25.3289C2.042 24.7422 2.41332 24.2328 2.85504 23.8242C4.11396 22.6592 5.93468 22.2506 7.6436 22.3887C9.35252 22.5281 10.9814 23.1575 12.5509 23.8519C14.6587 24.7836 16.71 25.8424 18.6908 27.0184C20.1678 27.8963 21.689 28.8668 23.4035 28.9661C25.122 29.0655 26.8171 28.2276 27.9725 26.9522C29.3502 25.431 30.1798 23.2845 30.1356 21.2291C30.0804 18.7072 28.7621 16.2888 26.6529 14.8987C24.9923 13.8041 22.9866 13.3817 21.0195 13.0863C18.4989 12.7081 15.9549 12.5038 13.4108 12.363C12.4418 12.3092 11.4659 12.2636 10.5245 12.0331C9.58304 11.8026 8.6637 11.3705 8.01078 10.6527C7.07902 9.62847 6.84988 8.10729 7.23363 6.80284C7.62151 5.48734 8.69269 4.56939 9.91433 4.02C10.1987 3.89163 10.4927 3.78258 10.7909 3.68871C11.7682 3.38227 12.838 3.44991 13.8609 3.55068C14.8837 3.65144 15.8182 4.01862 16.7735 4.45482C18.0462 5.03596 19.4362 5.80759 20.4895 6.749" stroke="#7530FE" stroke-width="3.3" stroke-linecap="round"/>
<path d="M22.3841 3.49707L11.145 22.9065" stroke="#7530FE" stroke-width="3.3" stroke-linecap="square"/>
</svg>